<svg width="262" height="38" viewBox="0 0 262 38" fill="none" xmlns="http://www.w3.org/2000/svg">
<path d="M31.8352 14.3125C30.8636 6.25 24.7614 1.61364 16.6818 1.61364C7.46023 1.61364 0.420455 8.125 0.420455 19.5455C0.420455 30.9318 7.34091 37.4773 16.6818 37.4773C25.6307 37.4773 31.0341 31.5284 31.8352 25.1023L24.3693 25.0682C23.6705 28.8011 20.7386 30.9489 16.8011 30.9489C11.5 30.9489 7.90341 27.0114 7.90341 19.5455C7.90341 12.2841 11.4489 8.14205 16.8523 8.14205C20.892 8.14205 23.8068 10.4773 24.3693 14.3125H31.8352ZM47.765 37.5114C55.7082 37.5114 60.6514 32.0739 60.6514 24.0114C60.6514 15.8977 55.7082 10.4773 47.765 10.4773C39.8218 10.4773 34.8787 15.8977 34.8787 24.0114C34.8787 32.0739 39.8218 37.5114 47.765 37.5114ZM47.7991 31.8864C44.1343 31.8864 42.2593 28.5284 42.2593 23.9602C42.2593 19.392 44.1343 16.017 47.7991 16.017C51.3957 16.017 53.2707 19.392 53.2707 23.9602C53.2707 28.5284 51.3957 31.8864 47.7991 31.8864ZM71.5783 21.8636C71.5954 18.4886 73.6068 16.5114 76.5386 16.5114C79.4533 16.5114 81.209 18.4205 81.192 21.625V37H88.4533V20.3295C88.4533 14.2273 84.8738 10.4773 79.4193 10.4773C75.5329 10.4773 72.7204 12.3864 71.5443 15.4375H71.2374V10.8182H64.317V37H71.5783V21.8636ZM114.904 18.2841C114.257 13.4602 110.37 10.4773 103.757 10.4773C97.0579 10.4773 92.6431 13.5795 92.6601 18.625C92.6431 22.5455 95.1147 25.0852 100.228 26.108L104.762 27.0114C107.046 27.4716 108.086 28.3068 108.12 29.6193C108.086 31.1705 106.399 32.2784 103.859 32.2784C101.268 32.2784 99.5465 31.1705 99.1033 29.0398L91.9613 29.4148C92.6431 34.4261 96.9044 37.5114 103.842 37.5114C110.626 37.5114 115.484 34.0511 115.501 28.8864C115.484 25.1023 113.012 22.8352 107.933 21.7955L103.194 20.8409C100.757 20.3125 99.8533 19.4773 99.8704 18.2159C99.8533 16.6477 101.626 15.625 103.876 15.625C106.399 15.625 107.899 17.0057 108.257 18.6932L114.904 18.2841ZM132.944 10.8182H128.017V4.54545H120.756V10.8182H117.177V16.2727H120.756V29.9091C120.722 35.0398 124.216 37.5795 129.483 37.358C131.358 37.2898 132.688 36.9148 133.421 36.6761L132.279 31.2727C131.921 31.3409 131.154 31.5114 130.472 31.5114C129.023 31.5114 128.017 30.9659 128.017 28.9545V16.2727H132.944V10.8182ZM136.618 37H143.879V22.1875C143.879 18.9659 146.231 16.75 149.436 16.75C150.442 16.75 151.822 16.9205 152.504 17.142V10.6989C151.856 10.5455 150.953 10.4432 150.22 10.4432C147.288 10.4432 144.885 12.1477 143.93 15.3864H143.658V10.8182H136.618V37ZM161.918 37.4943C165.788 37.4943 168.293 35.8068 169.572 33.3693H169.776V37H176.663V19.3409C176.663 13.1023 171.378 10.4773 165.549 10.4773C159.276 10.4773 155.151 13.4773 154.146 18.25L160.861 18.7955C161.356 17.0568 162.907 15.7784 165.515 15.7784C167.986 15.7784 169.401 17.0227 169.401 19.1705V19.2727C169.401 20.9602 167.611 21.1818 163.06 21.625C157.878 22.1023 153.225 23.8409 153.225 29.6875C153.225 34.8693 156.924 37.4943 161.918 37.4943ZM163.998 32.483C161.765 32.483 160.163 31.4432 160.163 29.4489C160.163 27.4034 161.85 26.3977 164.407 26.0398C165.992 25.8182 168.583 25.4432 169.452 24.8636V27.642C169.452 30.3864 167.185 32.483 163.998 32.483ZM181.24 37H188.501V10.8182H181.24V37ZM184.888 7.44318C187.053 7.44318 188.825 5.78977 188.825 3.76136C188.825 1.75 187.053 0.0965891 184.888 0.0965891C182.74 0.0965891 180.967 1.75 180.967 3.76136C180.967 5.78977 182.74 7.44318 184.888 7.44318ZM200.524 21.8636C200.541 18.4886 202.552 16.5114 205.484 16.5114C208.399 16.5114 210.154 18.4205 210.137 21.625V37H217.399V20.3295C217.399 14.2273 213.819 10.4773 208.365 10.4773C204.478 10.4773 201.666 12.3864 200.49 15.4375H200.183V10.8182H193.262V37H200.524V21.8636ZM235.992 10.8182H231.066V4.54545H223.804V10.8182H220.225V16.2727H223.804V29.9091C223.77 35.0398 227.264 37.5795 232.532 37.358C234.407 37.2898 235.736 36.9148 236.469 36.6761L235.327 31.2727C234.969 31.3409 234.202 31.5114 233.52 31.5114C232.071 31.5114 231.066 30.9659 231.066 28.9545V16.2727H235.992V10.8182ZM261.075 18.2841C260.427 13.4602 256.541 10.4773 249.927 10.4773C243.228 10.4773 238.814 13.5795 238.831 18.625C238.814 22.5455 241.285 25.0852 246.399 26.108L250.933 27.0114C253.217 27.4716 254.257 28.3068 254.291 29.6193C254.257 31.1705 252.569 32.2784 250.029 32.2784C247.439 32.2784 245.717 31.1705 245.274 29.0398L238.132 29.4148C238.814 34.4261 243.075 37.5114 250.012 37.5114C256.797 37.5114 261.654 34.0511 261.672 28.8864C261.654 25.1023 259.183 22.8352 254.103 21.7955L249.365 20.8409C246.927 20.3125 246.024 19.4773 246.041 18.2159C246.024 16.6477 247.797 15.625 250.047 15.625C252.569 15.625 254.069 17.0057 254.427 18.6932L261.075 18.2841Z" fill="black"/>
</svg>
